<mxfile host="app.diagrams.net" modified="2022-12-05T18:05:55.866Z" agent="5.0 (Windows NT 10.0; Win64; x64) AppleWebKit/537.36 (KHTML, like Gecko) Chrome/107.0.0.0 Safari/537.36" etag="NR57kZiIQh9SetMa1rar" version="18.1.3" type="gitlab">
  <diagram id="yHL_Qfg9oR6NgDnkEY8L" name="Pagina-1">
    <mxGraphModel dx="1422" dy="794" grid="1" gridSize="10" guides="1" tooltips="1" connect="1" arrows="1" fold="1" page="1" pageScale="1" pageWidth="827" pageHeight="1169" math="0" shadow="0">
      <root>
        <mxCell id="0" />
        <mxCell id="1" parent="0" />
        <mxCell id="jIxoqmBoYQ7-ECyy3qYm-38" style="edgeStyle=none;rounded=0;orthogonalLoop=1;jettySize=auto;html=1;exitX=1;exitY=0.5;exitDx=0;exitDy=0;entryX=0;entryY=0.5;entryDx=0;entryDy=0;startArrow=none;startFill=0;endArrow=none;endFill=0;" parent="1" edge="1">
          <mxGeometry relative="1" as="geometry">
            <mxPoint x="759.9999999999955" y="835" as="sourcePoint" />
          </mxGeometry>
        </mxCell>
        <mxCell id="jIxoqmBoYQ7-ECyy3qYm-43" style="edgeStyle=none;rounded=0;orthogonalLoop=1;jettySize=auto;html=1;exitX=1;exitY=0.5;exitDx=0;exitDy=0;startArrow=none;startFill=0;endArrow=none;endFill=0;entryX=0;entryY=0.5;entryDx=0;entryDy=0;" parent="1" edge="1">
          <mxGeometry relative="1" as="geometry">
            <mxPoint x="625" y="965" as="targetPoint" />
          </mxGeometry>
        </mxCell>
        <mxCell id="kdYPB71V-sgYkFToy0l9-1" style="rounded=0;orthogonalLoop=1;jettySize=auto;html=1;endArrow=none;endFill=0;elbow=vertical;jumpStyle=none;" edge="1" parent="1" source="kdYPB71V-sgYkFToy0l9-5" target="kdYPB71V-sgYkFToy0l9-6">
          <mxGeometry relative="1" as="geometry" />
        </mxCell>
        <mxCell id="kdYPB71V-sgYkFToy0l9-2" style="rounded=0;orthogonalLoop=1;jettySize=auto;html=1;exitX=1;exitY=0.3333333333333333;exitDx=0;exitDy=0;exitPerimeter=0;entryX=0;entryY=0.5;entryDx=0;entryDy=0;endArrow=none;endFill=0;" edge="1" parent="1" source="kdYPB71V-sgYkFToy0l9-5" target="kdYPB71V-sgYkFToy0l9-7">
          <mxGeometry relative="1" as="geometry" />
        </mxCell>
        <mxCell id="kdYPB71V-sgYkFToy0l9-3" style="edgeStyle=none;rounded=0;orthogonalLoop=1;jettySize=auto;html=1;exitX=1;exitY=0.3333333333333333;exitDx=0;exitDy=0;exitPerimeter=0;entryX=0;entryY=0.5;entryDx=0;entryDy=0;endArrow=none;endFill=0;" edge="1" parent="1" source="kdYPB71V-sgYkFToy0l9-5" target="kdYPB71V-sgYkFToy0l9-10">
          <mxGeometry relative="1" as="geometry" />
        </mxCell>
        <mxCell id="kdYPB71V-sgYkFToy0l9-4" style="edgeStyle=none;rounded=0;orthogonalLoop=1;jettySize=auto;html=1;exitX=1;exitY=0.3333333333333333;exitDx=0;exitDy=0;exitPerimeter=0;startArrow=none;startFill=0;endArrow=none;endFill=0;" edge="1" parent="1" source="kdYPB71V-sgYkFToy0l9-5" target="kdYPB71V-sgYkFToy0l9-13">
          <mxGeometry relative="1" as="geometry" />
        </mxCell>
        <mxCell id="kdYPB71V-sgYkFToy0l9-5" value="unregistered user" style="shape=umlActor;verticalLabelPosition=bottom;labelBackgroundColor=#ffffff;verticalAlign=top;html=1;outlineConnect=0;" vertex="1" parent="1">
          <mxGeometry x="98" y="298" width="30" height="60" as="geometry" />
        </mxCell>
        <mxCell id="kdYPB71V-sgYkFToy0l9-6" value="login" style="ellipse;whiteSpace=wrap;html=1;" vertex="1" parent="1">
          <mxGeometry x="271" y="156" width="140" height="70" as="geometry" />
        </mxCell>
        <mxCell id="kdYPB71V-sgYkFToy0l9-7" value="register" style="ellipse;whiteSpace=wrap;html=1;" vertex="1" parent="1">
          <mxGeometry x="330" y="293" width="140" height="70" as="geometry" />
        </mxCell>
        <mxCell id="kdYPB71V-sgYkFToy0l9-8" style="edgeStyle=none;rounded=0;orthogonalLoop=1;jettySize=auto;html=1;exitX=1;exitY=0.5;exitDx=0;exitDy=0;endArrow=classic;endFill=1;entryX=0;entryY=0.5;entryDx=0;entryDy=0;" edge="1" parent="1" source="kdYPB71V-sgYkFToy0l9-10" target="kdYPB71V-sgYkFToy0l9-13">
          <mxGeometry relative="1" as="geometry">
            <mxPoint x="570" y="560.1818181818182" as="targetPoint" />
          </mxGeometry>
        </mxCell>
        <mxCell id="kdYPB71V-sgYkFToy0l9-9" value="&amp;lt;&amp;lt;include&amp;gt;&amp;gt;" style="edgeLabel;html=1;align=center;verticalAlign=middle;resizable=0;points=[];" vertex="1" connectable="0" parent="kdYPB71V-sgYkFToy0l9-8">
          <mxGeometry x="-0.227" y="1" relative="1" as="geometry">
            <mxPoint x="8" y="1" as="offset" />
          </mxGeometry>
        </mxCell>
        <mxCell id="kdYPB71V-sgYkFToy0l9-10" value="browse movie" style="ellipse;whiteSpace=wrap;html=1;fontStyle=0" vertex="1" parent="1">
          <mxGeometry x="230" y="510" width="140" height="70" as="geometry" />
        </mxCell>
        <mxCell id="kdYPB71V-sgYkFToy0l9-11" style="edgeStyle=none;rounded=0;orthogonalLoop=1;jettySize=auto;html=1;exitX=1;exitY=0.5;exitDx=0;exitDy=0;endArrow=classic;endFill=1;entryX=0;entryY=0.5;entryDx=0;entryDy=0;" edge="1" parent="1" source="kdYPB71V-sgYkFToy0l9-13" target="kdYPB71V-sgYkFToy0l9-16">
          <mxGeometry relative="1" as="geometry">
            <mxPoint x="830" y="559.9565217391305" as="targetPoint" />
          </mxGeometry>
        </mxCell>
        <mxCell id="kdYPB71V-sgYkFToy0l9-12" value="&amp;lt;&amp;lt;include&amp;gt;&amp;gt;" style="edgeLabel;html=1;align=center;verticalAlign=middle;resizable=0;points=[];" vertex="1" connectable="0" parent="kdYPB71V-sgYkFToy0l9-11">
          <mxGeometry x="-0.0853" y="2" relative="1" as="geometry">
            <mxPoint as="offset" />
          </mxGeometry>
        </mxCell>
        <mxCell id="kdYPB71V-sgYkFToy0l9-13" value="find movie" style="ellipse;whiteSpace=wrap;html=1;fontStyle=0" vertex="1" parent="1">
          <mxGeometry x="540" y="500" width="140" height="70" as="geometry" />
        </mxCell>
        <mxCell id="kdYPB71V-sgYkFToy0l9-14" style="edgeStyle=none;rounded=0;orthogonalLoop=1;jettySize=auto;html=1;endArrow=none;endFill=0;startArrow=classic;startFill=1;" edge="1" parent="1" source="kdYPB71V-sgYkFToy0l9-16" target="kdYPB71V-sgYkFToy0l9-80">
          <mxGeometry relative="1" as="geometry">
            <mxPoint x="906.8571428571429" y="459.9999999999999" as="targetPoint" />
          </mxGeometry>
        </mxCell>
        <mxCell id="kdYPB71V-sgYkFToy0l9-15" value="&amp;lt;&amp;lt;extend&amp;gt;&amp;gt;" style="edgeLabel;html=1;align=center;verticalAlign=middle;resizable=0;points=[];" vertex="1" connectable="0" parent="kdYPB71V-sgYkFToy0l9-14">
          <mxGeometry x="0.2929" relative="1" as="geometry">
            <mxPoint as="offset" />
          </mxGeometry>
        </mxCell>
        <mxCell id="kdYPB71V-sgYkFToy0l9-16" value="view movie" style="ellipse;whiteSpace=wrap;html=1;fontStyle=0" vertex="1" parent="1">
          <mxGeometry x="760" y="420" width="140" height="70" as="geometry" />
        </mxCell>
        <mxCell id="kdYPB71V-sgYkFToy0l9-17" style="edgeStyle=none;rounded=0;orthogonalLoop=1;jettySize=auto;html=1;startArrow=classic;startFill=1;endArrow=none;endFill=0;" edge="1" parent="1" source="kdYPB71V-sgYkFToy0l9-73" target="kdYPB71V-sgYkFToy0l9-46">
          <mxGeometry relative="1" as="geometry" />
        </mxCell>
        <mxCell id="kdYPB71V-sgYkFToy0l9-18" value="&amp;lt;&amp;lt;extend&amp;gt;&amp;gt;" style="edgeLabel;html=1;align=center;verticalAlign=middle;resizable=0;points=[];" vertex="1" connectable="0" parent="kdYPB71V-sgYkFToy0l9-17">
          <mxGeometry x="0.1294" y="1" relative="1" as="geometry">
            <mxPoint as="offset" />
          </mxGeometry>
        </mxCell>
        <mxCell id="kdYPB71V-sgYkFToy0l9-19" value="view review" style="ellipse;whiteSpace=wrap;html=1;" vertex="1" parent="1">
          <mxGeometry x="880" y="595" width="140" height="70" as="geometry" />
        </mxCell>
        <mxCell id="kdYPB71V-sgYkFToy0l9-20" style="edgeStyle=none;rounded=0;orthogonalLoop=1;jettySize=auto;html=1;exitX=1;exitY=0.3333333333333333;exitDx=0;exitDy=0;exitPerimeter=0;entryX=0.098;entryY=0.824;entryDx=0;entryDy=0;entryPerimeter=0;startArrow=none;startFill=0;endArrow=none;endFill=0;" edge="1" parent="1" source="kdYPB71V-sgYkFToy0l9-26" target="kdYPB71V-sgYkFToy0l9-10">
          <mxGeometry relative="1" as="geometry" />
        </mxCell>
        <mxCell id="kdYPB71V-sgYkFToy0l9-21" style="edgeStyle=none;rounded=0;orthogonalLoop=1;jettySize=auto;html=1;exitX=1;exitY=0.3333333333333333;exitDx=0;exitDy=0;exitPerimeter=0;startArrow=none;startFill=0;endArrow=none;endFill=0;" edge="1" parent="1" source="kdYPB71V-sgYkFToy0l9-26" target="kdYPB71V-sgYkFToy0l9-35">
          <mxGeometry relative="1" as="geometry" />
        </mxCell>
        <mxCell id="kdYPB71V-sgYkFToy0l9-22" style="edgeStyle=none;rounded=0;orthogonalLoop=1;jettySize=auto;html=1;exitX=1;exitY=0.3333333333333333;exitDx=0;exitDy=0;exitPerimeter=0;entryX=0;entryY=0.5;entryDx=0;entryDy=0;startArrow=none;startFill=0;endArrow=none;endFill=0;" edge="1" parent="1" source="kdYPB71V-sgYkFToy0l9-26" target="kdYPB71V-sgYkFToy0l9-39">
          <mxGeometry relative="1" as="geometry" />
        </mxCell>
        <mxCell id="kdYPB71V-sgYkFToy0l9-23" style="edgeStyle=none;rounded=0;orthogonalLoop=1;jettySize=auto;html=1;exitX=1;exitY=0.3333333333333333;exitDx=0;exitDy=0;exitPerimeter=0;entryX=0;entryY=0.5;entryDx=0;entryDy=0;startArrow=none;startFill=0;endArrow=none;endFill=0;" edge="1" parent="1" source="kdYPB71V-sgYkFToy0l9-26" target="kdYPB71V-sgYkFToy0l9-42">
          <mxGeometry relative="1" as="geometry">
            <mxPoint x="385" y="975" as="targetPoint" />
          </mxGeometry>
        </mxCell>
        <mxCell id="kdYPB71V-sgYkFToy0l9-24" style="edgeStyle=none;rounded=0;orthogonalLoop=1;jettySize=auto;html=1;exitX=1;exitY=0.3333333333333333;exitDx=0;exitDy=0;exitPerimeter=0;entryX=0;entryY=0.5;entryDx=0;entryDy=0;startArrow=none;startFill=0;endArrow=none;endFill=0;" edge="1" parent="1" source="kdYPB71V-sgYkFToy0l9-26" target="kdYPB71V-sgYkFToy0l9-47">
          <mxGeometry relative="1" as="geometry" />
        </mxCell>
        <mxCell id="kdYPB71V-sgYkFToy0l9-25" style="edgeStyle=none;rounded=0;orthogonalLoop=1;jettySize=auto;html=1;exitX=1;exitY=0.3333333333333333;exitDx=0;exitDy=0;exitPerimeter=0;startArrow=none;startFill=0;endArrow=none;endFill=0;" edge="1" parent="1" source="kdYPB71V-sgYkFToy0l9-26" target="kdYPB71V-sgYkFToy0l9-13">
          <mxGeometry relative="1" as="geometry" />
        </mxCell>
        <mxCell id="kdYPB71V-sgYkFToy0l9-26" value="registered user" style="shape=umlActor;verticalLabelPosition=bottom;labelBackgroundColor=#ffffff;verticalAlign=top;html=1;outlineConnect=0;" vertex="1" parent="1">
          <mxGeometry x="176" y="750" width="30" height="60" as="geometry" />
        </mxCell>
        <mxCell id="kdYPB71V-sgYkFToy0l9-27" style="edgeStyle=none;rounded=0;orthogonalLoop=1;jettySize=auto;html=1;exitX=0;exitY=0.3333333333333333;exitDx=0;exitDy=0;exitPerimeter=0;endArrow=none;endFill=0;dashed=1;" edge="1" parent="1" source="kdYPB71V-sgYkFToy0l9-28">
          <mxGeometry relative="1" as="geometry">
            <mxPoint x="140" y="970" as="targetPoint" />
          </mxGeometry>
        </mxCell>
        <mxCell id="kdYPB71V-sgYkFToy0l9-28" value="normal" style="shape=umlActor;verticalLabelPosition=bottom;labelBackgroundColor=#ffffff;verticalAlign=top;html=1;outlineConnect=0;" vertex="1" parent="1">
          <mxGeometry x="176" y="950" width="30" height="60" as="geometry" />
        </mxCell>
        <mxCell id="kdYPB71V-sgYkFToy0l9-29" style="edgeStyle=none;rounded=0;orthogonalLoop=1;jettySize=auto;html=1;exitX=1;exitY=0.3333333333333333;exitDx=0;exitDy=0;exitPerimeter=0;entryX=0;entryY=0.5;entryDx=0;entryDy=0;startArrow=none;startFill=0;endArrow=none;endFill=0;" edge="1" parent="1" source="kdYPB71V-sgYkFToy0l9-32" target="kdYPB71V-sgYkFToy0l9-50">
          <mxGeometry relative="1" as="geometry" />
        </mxCell>
        <mxCell id="kdYPB71V-sgYkFToy0l9-30" style="edgeStyle=none;rounded=0;orthogonalLoop=1;jettySize=auto;html=1;exitX=1;exitY=0.3333333333333333;exitDx=0;exitDy=0;exitPerimeter=0;entryX=0;entryY=0.5;entryDx=0;entryDy=0;startArrow=none;startFill=0;endArrow=none;endFill=0;" edge="1" parent="1" source="kdYPB71V-sgYkFToy0l9-32" target="kdYPB71V-sgYkFToy0l9-64">
          <mxGeometry relative="1" as="geometry" />
        </mxCell>
        <mxCell id="kdYPB71V-sgYkFToy0l9-31" style="edgeStyle=none;rounded=0;orthogonalLoop=1;jettySize=auto;html=1;exitX=1;exitY=0.3333333333333333;exitDx=0;exitDy=0;exitPerimeter=0;entryX=0;entryY=0;entryDx=0;entryDy=0;startArrow=none;startFill=0;endArrow=none;endFill=0;" edge="1" parent="1" source="kdYPB71V-sgYkFToy0l9-32" target="kdYPB71V-sgYkFToy0l9-53">
          <mxGeometry relative="1" as="geometry" />
        </mxCell>
        <mxCell id="kdYPB71V-sgYkFToy0l9-32" value="admin" style="shape=umlActor;verticalLabelPosition=bottom;labelBackgroundColor=#ffffff;verticalAlign=top;html=1;outlineConnect=0;" vertex="1" parent="1">
          <mxGeometry x="176" y="1050" width="30" height="60" as="geometry" />
        </mxCell>
        <mxCell id="kdYPB71V-sgYkFToy0l9-33" value="" style="endArrow=none;html=1;rounded=0;dashed=1;" edge="1" parent="1">
          <mxGeometry width="50" height="50" relative="1" as="geometry">
            <mxPoint x="138" y="1020" as="sourcePoint" />
            <mxPoint x="138" y="870" as="targetPoint" />
          </mxGeometry>
        </mxCell>
        <mxCell id="kdYPB71V-sgYkFToy0l9-34" value="" style="endArrow=none;html=1;rounded=0;endFill=0;dashed=1;startArrow=block;startFill=0;exitX=0;exitY=0.3333333333333333;exitDx=0;exitDy=0;exitPerimeter=0;" edge="1" parent="1" source="kdYPB71V-sgYkFToy0l9-26">
          <mxGeometry width="50" height="50" relative="1" as="geometry">
            <mxPoint x="98" y="960" as="sourcePoint" />
            <mxPoint x="140" y="1020" as="targetPoint" />
            <Array as="points">
              <mxPoint x="98" y="770" />
              <mxPoint x="98" y="1020" />
            </Array>
          </mxGeometry>
        </mxCell>
        <mxCell id="kdYPB71V-sgYkFToy0l9-35" value="logout" style="ellipse;whiteSpace=wrap;html=1;" vertex="1" parent="1">
          <mxGeometry x="50" y="580" width="140" height="70" as="geometry" />
        </mxCell>
        <mxCell id="kdYPB71V-sgYkFToy0l9-36" style="edgeStyle=none;rounded=0;orthogonalLoop=1;jettySize=auto;html=1;endArrow=none;endFill=0;startArrow=classic;startFill=1;" edge="1" parent="1" source="kdYPB71V-sgYkFToy0l9-16" target="kdYPB71V-sgYkFToy0l9-38">
          <mxGeometry relative="1" as="geometry">
            <mxPoint x="1126.857142857143" y="489.9999999999999" as="targetPoint" />
            <mxPoint x="940" y="550" as="sourcePoint" />
          </mxGeometry>
        </mxCell>
        <mxCell id="kdYPB71V-sgYkFToy0l9-37" value="&amp;lt;&amp;lt;extend&amp;gt;&amp;gt;" style="edgeLabel;html=1;align=center;verticalAlign=middle;resizable=0;points=[];" vertex="1" connectable="0" parent="kdYPB71V-sgYkFToy0l9-36">
          <mxGeometry x="0.2929" relative="1" as="geometry">
            <mxPoint as="offset" />
          </mxGeometry>
        </mxCell>
        <mxCell id="kdYPB71V-sgYkFToy0l9-38" value="write review" style="ellipse;whiteSpace=wrap;html=1;strokeColor=#FF0000;" vertex="1" parent="1">
          <mxGeometry x="940" y="200" width="140" height="70" as="geometry" />
        </mxCell>
        <mxCell id="kdYPB71V-sgYkFToy0l9-39" value="browse own review" style="ellipse;whiteSpace=wrap;html=1;" vertex="1" parent="1">
          <mxGeometry x="481" y="730" width="140" height="70" as="geometry" />
        </mxCell>
        <mxCell id="kdYPB71V-sgYkFToy0l9-40" value="&amp;lt;&amp;lt;extends&amp;gt;&amp;gt;" style="edgeStyle=none;rounded=0;orthogonalLoop=1;jettySize=auto;html=1;endArrow=none;endFill=0;startArrow=classic;startFill=1;exitX=0.958;exitY=0.303;exitDx=0;exitDy=0;exitPerimeter=0;" edge="1" parent="1" source="kdYPB71V-sgYkFToy0l9-39" target="kdYPB71V-sgYkFToy0l9-80">
          <mxGeometry relative="1" as="geometry">
            <mxPoint x="1110.857142857143" y="739.9999999999999" as="targetPoint" />
            <mxPoint x="601" y="770" as="sourcePoint" />
          </mxGeometry>
        </mxCell>
        <mxCell id="kdYPB71V-sgYkFToy0l9-41" value="modify review" style="ellipse;whiteSpace=wrap;html=1;dashed=1;strokeColor=#FFFF00;" vertex="1" parent="1">
          <mxGeometry x="1080" y="660" width="140" height="70" as="geometry" />
        </mxCell>
        <mxCell id="kdYPB71V-sgYkFToy0l9-42" value="view account information" style="ellipse;whiteSpace=wrap;html=1;" vertex="1" parent="1">
          <mxGeometry x="551" y="930" width="140" height="70" as="geometry" />
        </mxCell>
        <mxCell id="kdYPB71V-sgYkFToy0l9-43" value="modify account information" style="ellipse;whiteSpace=wrap;html=1;strokeColor=#000000;" vertex="1" parent="1">
          <mxGeometry x="810" y="860" width="140" height="70" as="geometry" />
        </mxCell>
        <mxCell id="kdYPB71V-sgYkFToy0l9-44" style="edgeStyle=none;rounded=0;orthogonalLoop=1;jettySize=auto;html=1;endArrow=none;endFill=0;entryX=0;entryY=0.5;entryDx=0;entryDy=0;startArrow=classic;startFill=1;exitX=1;exitY=0.5;exitDx=0;exitDy=0;" edge="1" parent="1" source="kdYPB71V-sgYkFToy0l9-42" target="kdYPB71V-sgYkFToy0l9-43">
          <mxGeometry relative="1" as="geometry">
            <mxPoint x="751" y="700" as="targetPoint" />
            <mxPoint x="704.6400000000001" y="785.4099999999999" as="sourcePoint" />
          </mxGeometry>
        </mxCell>
        <mxCell id="kdYPB71V-sgYkFToy0l9-45" value="&amp;lt;&amp;lt;extend&amp;gt;&amp;gt;" style="edgeLabel;html=1;align=center;verticalAlign=middle;resizable=0;points=[];" vertex="1" connectable="0" parent="kdYPB71V-sgYkFToy0l9-44">
          <mxGeometry x="0.2929" relative="1" as="geometry">
            <mxPoint as="offset" />
          </mxGeometry>
        </mxCell>
        <mxCell id="kdYPB71V-sgYkFToy0l9-46" value="follow &quot;top critic&quot; user" style="ellipse;whiteSpace=wrap;html=1;strokeColor=#FF0000;" vertex="1" parent="1">
          <mxGeometry x="1360" y="530" width="140" height="70" as="geometry" />
        </mxCell>
        <mxCell id="kdYPB71V-sgYkFToy0l9-47" value="browse top critic review&amp;nbsp;" style="ellipse;whiteSpace=wrap;html=1;strokeColor=#FF0000;" vertex="1" parent="1">
          <mxGeometry x="590" y="821" width="140" height="70" as="geometry" />
        </mxCell>
        <mxCell id="kdYPB71V-sgYkFToy0l9-48" style="edgeStyle=none;rounded=0;orthogonalLoop=1;jettySize=auto;html=1;exitX=1;exitY=0.5;exitDx=0;exitDy=0;entryX=0;entryY=0.5;entryDx=0;entryDy=0;startArrow=none;startFill=0;endArrow=classic;endFill=1;" edge="1" parent="1" source="kdYPB71V-sgYkFToy0l9-50" target="kdYPB71V-sgYkFToy0l9-53">
          <mxGeometry relative="1" as="geometry" />
        </mxCell>
        <mxCell id="kdYPB71V-sgYkFToy0l9-49" value="&amp;lt;&amp;lt;include&amp;gt;&amp;gt;" style="edgeLabel;html=1;align=center;verticalAlign=middle;resizable=0;points=[];" vertex="1" connectable="0" parent="kdYPB71V-sgYkFToy0l9-48">
          <mxGeometry x="-0.1499" y="1" relative="1" as="geometry">
            <mxPoint as="offset" />
          </mxGeometry>
        </mxCell>
        <mxCell id="kdYPB71V-sgYkFToy0l9-50" value="browse user" style="ellipse;whiteSpace=wrap;html=1;fontStyle=0;strokeColor=#0000FF;" vertex="1" parent="1">
          <mxGeometry x="440" y="1170" width="140" height="70" as="geometry" />
        </mxCell>
        <mxCell id="kdYPB71V-sgYkFToy0l9-51" style="edgeStyle=none;rounded=0;orthogonalLoop=1;jettySize=auto;html=1;exitX=1;exitY=0.5;exitDx=0;exitDy=0;entryX=0;entryY=0.5;entryDx=0;entryDy=0;startArrow=none;startFill=0;endArrow=classic;endFill=1;" edge="1" parent="1" source="kdYPB71V-sgYkFToy0l9-53" target="kdYPB71V-sgYkFToy0l9-54">
          <mxGeometry relative="1" as="geometry" />
        </mxCell>
        <mxCell id="kdYPB71V-sgYkFToy0l9-52" value="&amp;lt;&amp;lt;include&amp;gt;&amp;gt;" style="edgeLabel;html=1;align=center;verticalAlign=middle;resizable=0;points=[];" vertex="1" connectable="0" parent="kdYPB71V-sgYkFToy0l9-51">
          <mxGeometry x="0.1867" y="-3" relative="1" as="geometry">
            <mxPoint x="-10" y="-3" as="offset" />
          </mxGeometry>
        </mxCell>
        <mxCell id="kdYPB71V-sgYkFToy0l9-53" value="find user" style="ellipse;whiteSpace=wrap;html=1;fontStyle=0;strokeColor=#0000FF;" vertex="1" parent="1">
          <mxGeometry x="691" y="1100" width="140" height="70" as="geometry" />
        </mxCell>
        <mxCell id="kdYPB71V-sgYkFToy0l9-54" value="view user" style="ellipse;whiteSpace=wrap;html=1;fontStyle=0;strokeColor=#0000FF;" vertex="1" parent="1">
          <mxGeometry x="1150" y="1100" width="140" height="70" as="geometry" />
        </mxCell>
        <mxCell id="kdYPB71V-sgYkFToy0l9-55" style="edgeStyle=none;rounded=0;orthogonalLoop=1;jettySize=auto;html=1;exitX=0;exitY=1;exitDx=0;exitDy=0;startArrow=none;startFill=0;endArrow=classic;endFill=1;" edge="1" parent="1" source="kdYPB71V-sgYkFToy0l9-57" target="kdYPB71V-sgYkFToy0l9-54">
          <mxGeometry relative="1" as="geometry" />
        </mxCell>
        <mxCell id="kdYPB71V-sgYkFToy0l9-56" value="&amp;lt;&amp;lt;extend&amp;gt;&amp;gt;" style="edgeLabel;html=1;align=center;verticalAlign=middle;resizable=0;points=[];" vertex="1" connectable="0" parent="kdYPB71V-sgYkFToy0l9-55">
          <mxGeometry x="0.1168" relative="1" as="geometry">
            <mxPoint as="offset" />
          </mxGeometry>
        </mxCell>
        <mxCell id="kdYPB71V-sgYkFToy0l9-57" value="ban user" style="ellipse;whiteSpace=wrap;html=1;fontStyle=0;strokeColor=#0000FF;" vertex="1" parent="1">
          <mxGeometry x="1320" y="1010" width="140" height="70" as="geometry" />
        </mxCell>
        <mxCell id="kdYPB71V-sgYkFToy0l9-58" value="add/modify/remove details&amp;nbsp;" style="ellipse;whiteSpace=wrap;html=1;fontStyle=0;strokeColor=#0000FF;" vertex="1" parent="1">
          <mxGeometry x="1060" y="320" width="140" height="70" as="geometry" />
        </mxCell>
        <mxCell id="kdYPB71V-sgYkFToy0l9-59" style="edgeStyle=none;rounded=0;orthogonalLoop=1;jettySize=auto;html=1;endArrow=none;endFill=0;startArrow=classic;startFill=1;" edge="1" parent="1" source="kdYPB71V-sgYkFToy0l9-16" target="kdYPB71V-sgYkFToy0l9-58">
          <mxGeometry relative="1" as="geometry">
            <mxPoint x="1137.0000000000002" y="479.9999999999999" as="targetPoint" />
            <mxPoint x="985.04" y="563.8399999999999" as="sourcePoint" />
          </mxGeometry>
        </mxCell>
        <mxCell id="kdYPB71V-sgYkFToy0l9-60" value="&amp;lt;&amp;lt;extend&amp;gt;&amp;gt;" style="edgeLabel;html=1;align=center;verticalAlign=middle;resizable=0;points=[];" vertex="1" connectable="0" parent="kdYPB71V-sgYkFToy0l9-59">
          <mxGeometry x="0.2929" relative="1" as="geometry">
            <mxPoint as="offset" />
          </mxGeometry>
        </mxCell>
        <mxCell id="kdYPB71V-sgYkFToy0l9-61" value="remove movie" style="ellipse;whiteSpace=wrap;html=1;fontStyle=0;strokeColor=#0000FF;" vertex="1" parent="1">
          <mxGeometry x="1100" y="420" width="140" height="70" as="geometry" />
        </mxCell>
        <mxCell id="kdYPB71V-sgYkFToy0l9-62" style="edgeStyle=none;rounded=0;orthogonalLoop=1;jettySize=auto;html=1;endArrow=none;endFill=0;startArrow=classic;startFill=1;" edge="1" parent="1" source="kdYPB71V-sgYkFToy0l9-16" target="kdYPB71V-sgYkFToy0l9-61">
          <mxGeometry relative="1" as="geometry">
            <mxPoint x="1141.12" y="489.78" as="targetPoint" />
            <mxPoint x="985.4599999999998" y="579.2400000000001" as="sourcePoint" />
          </mxGeometry>
        </mxCell>
        <mxCell id="kdYPB71V-sgYkFToy0l9-63" value="&amp;lt;&amp;lt;extend&amp;gt;&amp;gt;" style="edgeLabel;html=1;align=center;verticalAlign=middle;resizable=0;points=[];" vertex="1" connectable="0" parent="kdYPB71V-sgYkFToy0l9-62">
          <mxGeometry x="0.2929" relative="1" as="geometry">
            <mxPoint as="offset" />
          </mxGeometry>
        </mxCell>
        <mxCell id="kdYPB71V-sgYkFToy0l9-64" value="add movie" style="ellipse;whiteSpace=wrap;html=1;fontStyle=0;strokeColor=#0000FF;" vertex="1" parent="1">
          <mxGeometry x="340" y="1000" width="140" height="70" as="geometry" />
        </mxCell>
        <mxCell id="kdYPB71V-sgYkFToy0l9-65" style="edgeStyle=none;rounded=0;orthogonalLoop=1;jettySize=auto;html=1;exitX=0;exitY=0.5;exitDx=0;exitDy=0;entryX=1;entryY=0.3333333333333333;entryDx=0;entryDy=0;entryPerimeter=0;startArrow=none;startFill=0;endArrow=none;endFill=0;" edge="1" parent="1" source="kdYPB71V-sgYkFToy0l9-66" target="kdYPB71V-sgYkFToy0l9-32">
          <mxGeometry relative="1" as="geometry" />
        </mxCell>
        <mxCell id="kdYPB71V-sgYkFToy0l9-66" value="see the most active users" style="ellipse;whiteSpace=wrap;html=1;fontStyle=0;strokeColor=#0000FF;" vertex="1" parent="1">
          <mxGeometry x="430" y="1300" width="140" height="70" as="geometry" />
        </mxCell>
        <mxCell id="kdYPB71V-sgYkFToy0l9-67" value="&lt;font color=&quot;#ff0000&quot;&gt;Rosso&lt;/font&gt;: normal user&lt;br&gt;&lt;font color=&quot;#00ff00&quot;&gt;Verde&lt;/font&gt;: top critic&lt;br&gt;&lt;font color=&quot;#0000ff&quot;&gt;Blu&lt;/font&gt;: admin user" style="text;html=1;strokeColor=none;fillColor=none;align=center;verticalAlign=middle;whiteSpace=wrap;rounded=0;" vertex="1" parent="1">
          <mxGeometry x="1240" y="298" width="150" height="42" as="geometry" />
        </mxCell>
        <mxCell id="kdYPB71V-sgYkFToy0l9-68" value="top critic" style="shape=umlActor;verticalLabelPosition=bottom;labelBackgroundColor=#ffffff;verticalAlign=top;html=1;outlineConnect=0;" vertex="1" parent="1">
          <mxGeometry x="176" y="840" width="30" height="60" as="geometry" />
        </mxCell>
        <mxCell id="kdYPB71V-sgYkFToy0l9-69" value="" style="endArrow=none;html=1;rounded=0;dashed=1;exitX=0.5;exitY=0.5;exitDx=0;exitDy=0;exitPerimeter=0;" edge="1" parent="1" source="kdYPB71V-sgYkFToy0l9-68">
          <mxGeometry width="50" height="50" relative="1" as="geometry">
            <mxPoint x="147.9999999999999" y="1080" as="sourcePoint" />
            <mxPoint x="140" y="870" as="targetPoint" />
          </mxGeometry>
        </mxCell>
        <mxCell id="kdYPB71V-sgYkFToy0l9-70" style="rounded=0;orthogonalLoop=1;jettySize=auto;html=1;fontColor=#00FF00;" edge="1" parent="1" source="kdYPB71V-sgYkFToy0l9-71" target="kdYPB71V-sgYkFToy0l9-16">
          <mxGeometry relative="1" as="geometry" />
        </mxCell>
        <mxCell id="kdYPB71V-sgYkFToy0l9-71" value="write top critic review" style="ellipse;whiteSpace=wrap;html=1;strokeColor=#00FF00;" vertex="1" parent="1">
          <mxGeometry x="1050" y="550" width="140" height="70" as="geometry" />
        </mxCell>
        <mxCell id="kdYPB71V-sgYkFToy0l9-72" value="find top critic user" style="ellipse;whiteSpace=wrap;html=1;strokeColor=#000000;" vertex="1" parent="1">
          <mxGeometry x="1030" y="760" width="140" height="70" as="geometry" />
        </mxCell>
        <mxCell id="kdYPB71V-sgYkFToy0l9-73" value="view top critic user" style="ellipse;whiteSpace=wrap;html=1;strokeColor=#000000;" vertex="1" parent="1">
          <mxGeometry x="1270" y="751" width="140" height="70" as="geometry" />
        </mxCell>
        <mxCell id="kdYPB71V-sgYkFToy0l9-74" style="edgeStyle=none;rounded=0;orthogonalLoop=1;jettySize=auto;html=1;startArrow=classic;startFill=1;endArrow=none;endFill=0;" edge="1" parent="1" source="kdYPB71V-sgYkFToy0l9-72" target="kdYPB71V-sgYkFToy0l9-73">
          <mxGeometry relative="1" as="geometry">
            <mxPoint x="947.2174809993776" y="145.23001729660223" as="sourcePoint" />
            <mxPoint x="1082.8959686697895" y="124.96304395295704" as="targetPoint" />
          </mxGeometry>
        </mxCell>
        <mxCell id="kdYPB71V-sgYkFToy0l9-75" value="&amp;lt;&amp;lt;extend&amp;gt;&amp;gt;" style="edgeLabel;html=1;align=center;verticalAlign=middle;resizable=0;points=[];" vertex="1" connectable="0" parent="kdYPB71V-sgYkFToy0l9-74">
          <mxGeometry x="0.1294" y="1" relative="1" as="geometry">
            <mxPoint as="offset" />
          </mxGeometry>
        </mxCell>
        <mxCell id="kdYPB71V-sgYkFToy0l9-76" style="edgeStyle=none;rounded=0;orthogonalLoop=1;jettySize=auto;html=1;startArrow=classic;startFill=1;endArrow=none;endFill=0;" edge="1" parent="1" source="kdYPB71V-sgYkFToy0l9-19" target="kdYPB71V-sgYkFToy0l9-72">
          <mxGeometry relative="1" as="geometry">
            <mxPoint x="957.2174809993776" y="155.23001729660223" as="sourcePoint" />
            <mxPoint x="1092.8959686697895" y="134.96304395295704" as="targetPoint" />
          </mxGeometry>
        </mxCell>
        <mxCell id="kdYPB71V-sgYkFToy0l9-77" value="&amp;lt;&amp;lt;extend&amp;gt;&amp;gt;" style="edgeLabel;html=1;align=center;verticalAlign=middle;resizable=0;points=[];" vertex="1" connectable="0" parent="kdYPB71V-sgYkFToy0l9-76">
          <mxGeometry x="0.1294" y="1" relative="1" as="geometry">
            <mxPoint as="offset" />
          </mxGeometry>
        </mxCell>
        <mxCell id="kdYPB71V-sgYkFToy0l9-78" style="edgeStyle=none;rounded=0;orthogonalLoop=1;jettySize=auto;html=1;startArrow=classic;startFill=1;endArrow=none;endFill=0;" edge="1" parent="1" source="kdYPB71V-sgYkFToy0l9-19" target="kdYPB71V-sgYkFToy0l9-41">
          <mxGeometry relative="1" as="geometry">
            <mxPoint x="800.7485395936424" y="360.30702347615943" as="sourcePoint" />
            <mxPoint x="786.251460406372" y="305.6929765238948" as="targetPoint" />
          </mxGeometry>
        </mxCell>
        <mxCell id="kdYPB71V-sgYkFToy0l9-79" value="&amp;lt;&amp;lt;extend&amp;gt;&amp;gt;" style="edgeLabel;html=1;align=center;verticalAlign=middle;resizable=0;points=[];" vertex="1" connectable="0" parent="kdYPB71V-sgYkFToy0l9-78">
          <mxGeometry x="0.1294" y="1" relative="1" as="geometry">
            <mxPoint as="offset" />
          </mxGeometry>
        </mxCell>
        <mxCell id="kdYPB71V-sgYkFToy0l9-80" value="find review" style="ellipse;whiteSpace=wrap;html=1;" vertex="1" parent="1">
          <mxGeometry x="680" y="580" width="140" height="70" as="geometry" />
        </mxCell>
        <mxCell id="kdYPB71V-sgYkFToy0l9-81" style="edgeStyle=none;rounded=0;orthogonalLoop=1;jettySize=auto;html=1;endArrow=none;endFill=0;startArrow=classic;startFill=1;" edge="1" parent="1" source="kdYPB71V-sgYkFToy0l9-80" target="kdYPB71V-sgYkFToy0l9-19">
          <mxGeometry relative="1" as="geometry">
            <mxPoint x="776.9774937525428" y="591.0450124949141" as="targetPoint" />
            <mxPoint x="823.0225062474572" y="498.9549875050859" as="sourcePoint" />
          </mxGeometry>
        </mxCell>
        <mxCell id="kdYPB71V-sgYkFToy0l9-82" value="&amp;lt;&amp;lt;extend&amp;gt;&amp;gt;" style="edgeLabel;html=1;align=center;verticalAlign=middle;resizable=0;points=[];" vertex="1" connectable="0" parent="kdYPB71V-sgYkFToy0l9-81">
          <mxGeometry x="0.2929" relative="1" as="geometry">
            <mxPoint as="offset" />
          </mxGeometry>
        </mxCell>
        <mxCell id="kdYPB71V-sgYkFToy0l9-83" value="&amp;lt;&amp;lt;extends&amp;gt;&amp;gt;" style="edgeStyle=none;rounded=0;orthogonalLoop=1;jettySize=auto;html=1;endArrow=none;endFill=0;startArrow=classic;startFill=1;" edge="1" parent="1" source="kdYPB71V-sgYkFToy0l9-47" target="kdYPB71V-sgYkFToy0l9-80">
          <mxGeometry relative="1" as="geometry">
            <mxPoint x="719.2605530711235" y="653.461805388667" as="targetPoint" />
            <mxPoint x="565.1200000000001" y="761.21" as="sourcePoint" />
          </mxGeometry>
        </mxCell>
        <mxCell id="kdYPB71V-sgYkFToy0l9-84" value="view number of followers" style="ellipse;whiteSpace=wrap;html=1;strokeColor=#00FF00;" vertex="1" parent="1">
          <mxGeometry x="810" y="1000" width="140" height="70" as="geometry" />
        </mxCell>
        <mxCell id="kdYPB71V-sgYkFToy0l9-85" style="edgeStyle=none;rounded=0;orthogonalLoop=1;jettySize=auto;html=1;endArrow=none;endFill=0;startArrow=classic;startFill=1;" edge="1" parent="1" source="kdYPB71V-sgYkFToy0l9-42" target="kdYPB71V-sgYkFToy0l9-84">
          <mxGeometry relative="1" as="geometry">
            <mxPoint x="820" y="905" as="targetPoint" />
            <mxPoint x="701" y="975" as="sourcePoint" />
          </mxGeometry>
        </mxCell>
        <mxCell id="kdYPB71V-sgYkFToy0l9-86" value="&amp;lt;&amp;lt;extend&amp;gt;&amp;gt;" style="edgeLabel;html=1;align=center;verticalAlign=middle;resizable=0;points=[];" vertex="1" connectable="0" parent="kdYPB71V-sgYkFToy0l9-85">
          <mxGeometry x="0.2929" relative="1" as="geometry">
            <mxPoint as="offset" />
          </mxGeometry>
        </mxCell>
        <mxCell id="kdYPB71V-sgYkFToy0l9-87" style="edgeStyle=none;rounded=0;orthogonalLoop=1;jettySize=auto;html=1;startArrow=none;startFill=0;endArrow=none;endFill=0;" edge="1" parent="1" target="kdYPB71V-sgYkFToy0l9-10">
          <mxGeometry relative="1" as="geometry">
            <mxPoint x="210" y="1070" as="sourcePoint" />
            <mxPoint x="350" y="1045" as="targetPoint" />
          </mxGeometry>
        </mxCell>
        <mxCell id="kdYPB71V-sgYkFToy0l9-88" style="edgeStyle=none;rounded=0;orthogonalLoop=1;jettySize=auto;html=1;exitX=1;exitY=0.3333333333333333;exitDx=0;exitDy=0;exitPerimeter=0;startArrow=none;startFill=0;endArrow=none;endFill=0;" edge="1" parent="1" source="kdYPB71V-sgYkFToy0l9-32" target="kdYPB71V-sgYkFToy0l9-13">
          <mxGeometry relative="1" as="geometry">
            <mxPoint x="226" y="1090" as="sourcePoint" />
            <mxPoint x="360" y="1055" as="targetPoint" />
          </mxGeometry>
        </mxCell>
        <mxCell id="kdYPB71V-sgYkFToy0l9-89" style="edgeStyle=none;rounded=0;orthogonalLoop=1;jettySize=auto;html=1;startArrow=none;startFill=0;endArrow=classic;endFill=1;" edge="1" parent="1" source="kdYPB71V-sgYkFToy0l9-80" target="kdYPB71V-sgYkFToy0l9-54">
          <mxGeometry relative="1" as="geometry">
            <mxPoint x="1170.5025253169417" y="1019.748737341529" as="sourcePoint" />
            <mxPoint x="1074.033166048649" y="1123.2675556285792" as="targetPoint" />
          </mxGeometry>
        </mxCell>
        <mxCell id="kdYPB71V-sgYkFToy0l9-90" value="&amp;lt;&amp;lt;extend&amp;gt;&amp;gt;" style="edgeLabel;html=1;align=center;verticalAlign=middle;resizable=0;points=[];" vertex="1" connectable="0" parent="kdYPB71V-sgYkFToy0l9-89">
          <mxGeometry x="0.1168" relative="1" as="geometry">
            <mxPoint as="offset" />
          </mxGeometry>
        </mxCell>
        <mxCell id="kdYPB71V-sgYkFToy0l9-91" value="register top critic account" style="ellipse;whiteSpace=wrap;html=1;fontStyle=0;strokeColor=#0000FF;" vertex="1" parent="1">
          <mxGeometry x="370" y="1440" width="140" height="70" as="geometry" />
        </mxCell>
        <mxCell id="kdYPB71V-sgYkFToy0l9-92" style="edgeStyle=none;rounded=0;orthogonalLoop=1;jettySize=auto;html=1;entryX=1;entryY=0.3333333333333333;entryDx=0;entryDy=0;entryPerimeter=0;startArrow=none;startFill=0;endArrow=none;endFill=0;" edge="1" parent="1" source="kdYPB71V-sgYkFToy0l9-91" target="kdYPB71V-sgYkFToy0l9-32">
          <mxGeometry relative="1" as="geometry">
            <mxPoint x="440" y="1345" as="sourcePoint" />
            <mxPoint x="216" y="1080" as="targetPoint" />
          </mxGeometry>
        </mxCell>
        <mxCell id="kdYPB71V-sgYkFToy0l9-93" value="System" style="shape=umlActor;verticalLabelPosition=bottom;labelBackgroundColor=#ffffff;verticalAlign=top;html=1;outlineConnect=0;" vertex="1" parent="1">
          <mxGeometry x="1260" y="1300" width="30" height="60" as="geometry" />
        </mxCell>
        <mxCell id="kdYPB71V-sgYkFToy0l9-94" value="highlight top critic review" style="ellipse;whiteSpace=wrap;html=1;fontStyle=0" vertex="1" parent="1">
          <mxGeometry x="960" y="1290" width="140" height="70" as="geometry" />
        </mxCell>
        <mxCell id="kdYPB71V-sgYkFToy0l9-95" style="edgeStyle=none;rounded=0;orthogonalLoop=1;jettySize=auto;html=1;startArrow=none;startFill=0;endArrow=none;endFill=0;exitX=0;exitY=0.3333333333333333;exitDx=0;exitDy=0;exitPerimeter=0;" edge="1" parent="1" source="kdYPB71V-sgYkFToy0l9-93" target="kdYPB71V-sgYkFToy0l9-94">
          <mxGeometry relative="1" as="geometry">
            <mxPoint x="440.5722243025398" y="1221.3750036005495" as="sourcePoint" />
            <mxPoint x="226" y="850" as="targetPoint" />
          </mxGeometry>
        </mxCell>
      </root>
    </mxGraphModel>
  </diagram>
</mxfile>
